<svg width="682" height="124" viewBox="0 0 682 124" fill="none" xmlns="http://www.w3.org/2000/svg">
<path d="M63.7467 54.7237H47.9441C47.7334 53.1013 47.3015 51.637 46.6483 50.3306C45.9952 49.0243 45.1313 47.9076 44.0567 46.9805C42.9821 46.0534 41.7074 45.3475 40.2325 44.8629C38.7787 44.3572 37.1668 44.1044 35.3969 44.1044C32.2575 44.1044 29.55 44.8735 27.2744 46.4116C25.0199 47.9497 23.2816 50.1726 22.0595 53.0803C20.8586 55.9879 20.2581 59.5066 20.2581 63.6364C20.2581 67.9347 20.8691 71.5376 22.0912 74.4453C23.3343 77.3319 25.0726 79.5127 27.306 80.9876C29.5605 82.4414 32.2259 83.1683 35.3021 83.1683C37.0298 83.1683 38.5996 82.9471 40.0113 82.5046C41.444 82.0621 42.6977 81.4195 43.7723 80.5767C44.8679 79.7128 45.7634 78.6699 46.4587 77.4478C47.1751 76.2047 47.6702 74.8035 47.9441 73.2443L63.7467 73.3391C63.4728 76.2047 62.6405 79.0281 61.2499 81.8093C59.8803 84.5906 57.9946 87.1295 55.5926 89.4261C53.1906 91.7017 50.2618 93.5137 46.8064 94.8622C43.3719 96.2107 39.4318 96.8849 34.986 96.8849C29.1286 96.8849 23.8821 95.5997 19.2467 93.0291C14.6323 90.4375 10.9872 86.666 8.31132 81.7145C5.63542 76.763 4.29747 70.737 4.29747 63.6364C4.29747 56.5147 5.65649 50.4781 8.37453 45.5266C11.0926 40.5752 14.7693 36.8142 19.4047 34.2436C24.0401 31.6731 29.2339 30.3878 34.986 30.3878C38.9051 30.3878 42.5291 30.9356 45.8582 32.0312C49.1873 33.1058 52.116 34.6861 54.6444 36.772C57.1728 38.8369 59.2272 41.3758 60.8074 44.3888C62.3877 47.4019 63.3674 50.8468 63.7467 54.7237ZM88.1537 68.3139V96H72.6988V31.2727H87.6481V56.3672H88.1853C89.281 53.3752 91.0719 51.0365 93.5582 49.3509C96.0656 47.6652 99.1313 46.8224 102.755 46.8224C106.169 46.8224 109.14 47.581 111.668 49.098C114.196 50.594 116.156 52.7115 117.546 55.4506C118.958 58.1897 119.654 61.3924 119.632 65.0586V96H104.178V68.0927C104.199 65.3957 103.524 63.2887 102.155 61.7717C100.785 60.2546 98.8573 59.4961 96.3711 59.4961C94.7487 59.4961 93.3159 59.8543 92.0728 60.5707C90.8507 61.266 89.892 62.2668 89.1967 63.5732C88.5225 64.8795 88.1748 66.4598 88.1537 68.3139ZM142.965 96.8217C139.868 96.8217 137.118 96.3055 134.716 95.2731C132.335 94.2196 130.449 92.6393 129.059 90.5323C127.689 88.4042 127.004 85.7389 127.004 82.5362C127.004 79.8393 127.478 77.5637 128.427 75.7095C129.375 73.8553 130.681 72.3488 132.346 71.19C134.01 70.0311 135.928 69.1567 138.098 68.5668C140.268 67.9557 142.586 67.5449 145.051 67.3342C147.811 67.0813 150.034 66.8179 151.72 66.544C153.405 66.2491 154.627 65.8382 155.386 65.3114C156.165 64.7636 156.555 63.9946 156.555 63.0043V62.8462C156.555 61.2238 155.997 59.9702 154.88 59.0852C153.763 58.2003 152.257 57.7578 150.361 57.7578C148.317 57.7578 146.673 58.2003 145.43 59.0852C144.187 59.9702 143.397 61.1922 143.06 62.7514L128.806 62.2457C129.227 59.2959 130.312 56.6622 132.061 54.3445C133.831 52.0057 136.254 50.1726 139.33 48.8452C142.428 47.4967 146.146 46.8224 150.487 46.8224C153.584 46.8224 156.439 47.1912 159.052 47.9286C161.665 48.645 163.94 49.6985 165.879 51.0891C167.817 52.4587 169.313 54.1443 170.367 56.146C171.441 58.1476 171.978 60.4337 171.978 63.0043V96H157.44V89.2365H157.061C156.197 90.88 155.091 92.2706 153.742 93.4084C152.415 94.5462 150.845 95.3995 149.033 95.9684C147.242 96.5373 145.219 96.8217 142.965 96.8217ZM147.737 86.7081C149.402 86.7081 150.898 86.371 152.225 85.6967C153.574 85.0225 154.648 84.0954 155.449 82.9155C156.25 81.7145 156.65 80.3239 156.65 78.7436V74.1293C156.207 74.361 155.67 74.5717 155.038 74.7614C154.427 74.951 153.753 75.1301 153.015 75.2987C152.278 75.4672 151.519 75.6147 150.74 75.7411C149.96 75.8675 149.212 75.9834 148.496 76.0888C147.042 76.3205 145.799 76.6787 144.766 77.1634C143.755 77.648 142.975 78.2801 142.428 79.0597C141.901 79.8182 141.637 80.7242 141.637 81.7777C141.637 83.379 142.206 84.6011 143.344 85.4439C144.503 86.2867 145.967 86.7081 147.737 86.7081ZM208.83 47.4545V58.8324H178.205V47.4545H208.83ZM184.62 35.8239H200.075V80.7347C200.075 81.6829 200.223 82.4519 200.518 83.0419C200.834 83.6108 201.287 84.0217 201.877 84.2745C202.467 84.5063 203.173 84.6222 203.994 84.6222C204.584 84.6222 205.206 84.5695 205.859 84.4641C206.533 84.3377 207.039 84.2324 207.376 84.1481L209.715 95.3047C208.977 95.5154 207.934 95.7788 206.586 96.0948C205.259 96.4109 203.668 96.611 201.814 96.6953C198.19 96.8639 195.082 96.4425 192.49 95.4311C189.92 94.3987 187.95 92.7973 186.58 90.6271C185.231 88.4569 184.578 85.7283 184.62 82.4414V35.8239ZM244.117 47.4545V58.8324H213.492V47.4545H244.117ZM219.908 35.8239H235.362V80.7347C235.362 81.6829 235.51 82.4519 235.805 83.0419C236.121 83.6108 236.574 84.0217 237.164 84.2745C237.754 84.5063 238.46 84.6222 239.281 84.6222C239.871 84.6222 240.493 84.5695 241.146 84.4641C241.82 84.3377 242.326 84.2324 242.663 84.1481L245.002 95.3047C244.265 95.5154 243.222 95.7788 241.873 96.0948C240.546 96.4109 238.955 96.611 237.101 96.6953C233.477 96.8639 230.369 96.4425 227.777 95.4311C225.207 94.3987 223.237 92.7973 221.867 90.6271C220.519 88.4569 219.865 85.7283 219.908 82.4414V35.8239ZM274.174 96.9165C269.096 96.9165 264.713 95.9157 261.026 93.9141C257.36 91.8913 254.536 89.0153 252.556 85.2859C250.596 81.5354 249.616 77.0791 249.616 71.9169C249.616 66.9022 250.607 62.5196 252.587 58.7692C254.568 54.9976 257.36 52.0689 260.963 49.983C264.566 47.8759 268.811 46.8224 273.699 46.8224C277.155 46.8224 280.315 47.3597 283.181 48.4343C286.047 49.5089 288.522 51.0997 290.608 53.2067C292.694 55.3137 294.317 57.9158 295.475 61.0131C296.634 64.0894 297.214 67.6186 297.214 71.6009V75.4567H255.021V66.4808H282.833C282.812 64.8374 282.422 63.373 281.664 62.0877C280.905 60.8024 279.862 59.8016 278.535 59.0852C277.229 58.3478 275.722 57.979 274.016 57.979C272.288 57.979 270.739 58.3688 269.37 59.1484C268 59.907 266.915 60.9499 266.114 62.2773C265.314 63.5837 264.892 65.0691 264.85 66.7337V75.8675C264.85 77.8481 265.24 79.5864 266.019 81.0824C266.799 82.5573 267.905 83.7056 269.338 84.5273C270.771 85.3491 272.477 85.7599 274.458 85.7599C275.828 85.7599 277.071 85.5703 278.187 85.1911C279.304 84.8118 280.263 84.2534 281.063 83.516C281.864 82.7785 282.465 81.8725 282.865 80.7979L297.056 81.2088C296.466 84.3904 295.17 87.1611 293.168 89.521C291.188 91.8597 288.585 93.6823 285.362 94.9886C282.138 96.2739 278.409 96.9165 274.174 96.9165ZM305.107 96V47.4545H320.119V56.304H320.625C321.51 53.1013 322.953 50.7204 324.955 49.1612C326.957 47.581 329.285 46.7908 331.94 46.7908C332.656 46.7908 333.394 46.8435 334.152 46.9489C334.911 47.0331 335.617 47.1701 336.27 47.3597V60.7919C335.532 60.5391 334.563 60.3389 333.362 60.1914C332.182 60.0439 331.129 59.9702 330.202 59.9702C328.368 59.9702 326.714 60.381 325.24 61.2028C323.786 62.0034 322.637 63.1307 321.795 64.5845C320.973 66.0173 320.562 67.7029 320.562 69.6413V96H305.107Z" fill="#3095F2"/>
<path d="M342.567 96V31.2727H369.558C374.404 31.2727 378.46 31.9575 381.726 33.3271C385.013 34.6966 387.478 36.614 389.121 39.0792C390.786 41.5444 391.618 44.3994 391.618 47.6442C391.618 50.1094 391.102 52.3112 390.069 54.2496C389.037 56.167 387.615 57.7578 385.803 59.022C383.991 60.2862 381.894 61.1712 379.513 61.6768V62.3089C382.126 62.4354 384.539 63.1412 386.751 64.4265C388.984 65.7118 390.775 67.5027 392.124 69.7994C393.472 72.0749 394.147 74.7719 394.147 77.8903C394.147 81.3668 393.262 84.4747 391.492 87.2138C389.722 89.9318 387.162 92.081 383.812 93.6612C380.462 95.2204 376.395 96 371.612 96H342.567ZM358.212 83.3896H367.883C371.275 83.3896 373.772 82.7469 375.373 81.4616C376.996 80.1764 377.807 78.3854 377.807 76.0888C377.807 74.4242 377.417 72.9915 376.637 71.7905C375.858 70.5684 374.752 69.6308 373.319 68.9776C371.886 68.3034 370.169 67.9663 368.167 67.9663H358.212V83.3896ZM358.212 57.8842H366.871C368.578 57.8842 370.095 57.5998 371.422 57.0309C372.75 56.462 373.782 55.6403 374.52 54.5657C375.278 53.4911 375.658 52.1953 375.658 50.6783C375.658 48.508 374.889 46.8014 373.35 45.5582C371.812 44.3151 369.737 43.6935 367.124 43.6935H358.212V57.8842ZM424.329 96.9165C419.23 96.9165 414.848 95.8736 411.182 93.7876C407.537 91.6806 404.724 88.7519 402.743 85.0014C400.784 81.2299 399.804 76.8578 399.804 71.8853C399.804 66.8917 400.784 62.5196 402.743 58.7692C404.724 54.9976 407.537 52.0689 411.182 49.983C414.848 47.8759 419.23 46.8224 424.329 46.8224C429.428 46.8224 433.8 47.8759 437.446 49.983C441.112 52.0689 443.925 54.9976 445.884 58.7692C447.865 62.5196 448.855 66.8917 448.855 71.8853C448.855 76.8578 447.865 81.2299 445.884 85.0014C443.925 88.7519 441.112 91.6806 437.446 93.7876C433.8 95.8736 429.428 96.9165 424.329 96.9165ZM424.424 85.2543C426.278 85.2543 427.848 84.6854 429.133 83.5476C430.419 82.4098 431.398 80.8295 432.073 78.8068C432.768 76.7841 433.116 74.4453 433.116 71.7905C433.116 69.0935 432.768 66.7337 432.073 64.7109C431.398 62.6882 430.419 61.108 429.133 59.9702C427.848 58.8324 426.278 58.2635 424.424 58.2635C422.507 58.2635 420.884 58.8324 419.557 59.9702C418.251 61.108 417.25 62.6882 416.555 64.7109C415.88 66.7337 415.543 69.0935 415.543 71.7905C415.543 74.4453 415.88 76.7841 416.555 78.8068C417.25 80.8295 418.251 82.4098 419.557 83.5476C420.884 84.6854 422.507 85.2543 424.424 85.2543ZM468.182 47.4545L476.178 63.4467L484.458 47.4545H500.039L486.481 71.7273L500.545 96H485.09L476.178 79.8814L467.486 96H451.81L465.906 71.7273L452.505 47.4545H468.182Z" fill="black"/>
<path d="M649 51.5C649 78.8381 622.585 101 590 101C572.378 101 531 101 531 101C531 101 531 64.0537 531 51.5C531 24.1619 557.415 2 590 2C622.585 2 649 24.1619 649 51.5Z" fill="#2F88FF" stroke="black" stroke-width="4" stroke-linecap="round" stroke-linejoin="round"/>
<path d="M560.5 36.65H613.6" stroke="white" stroke-width="4" stroke-linecap="round" stroke-linejoin="round"/>
<path d="M560.5 56.45H613.6" stroke="white" stroke-width="4" stroke-linecap="round" stroke-linejoin="round"/>
<path d="M560.5 76.25H590" stroke="white" stroke-width="4" stroke-linecap="round" stroke-linejoin="round"/>
</svg>
